<?xml version="1.0" encoding="UTF-8" standalone="no"?>
<svg
   xmlns:dc="http://purl.org/dc/elements/1.1/"
   xmlns:cc="http://creativecommons.org/ns#"
   xmlns:rdf="http://www.w3.org/1999/02/22-rdf-syntax-ns#"
   xmlns:svg="http://www.w3.org/2000/svg"
   xmlns="http://www.w3.org/2000/svg"
   xmlns:sodipodi="http://sodipodi.sourceforge.net/DTD/sodipodi-0.dtd"
   xmlns:inkscape="http://www.inkscape.org/namespaces/inkscape"
   viewBox="68.96 55.62 1734.0795 276.66532"
   version="1.1"
   id="svg847"
   sodipodi:docname="zulip-org-logo-knockout.svg"
   width="1734.0795"
   height="276.66531"
   inkscape:version="1.0.2 (e86c8708, 2021-01-15)">
  <metadata
     id="metadata853">
    <rdf:RDF>
      <cc:Work
         rdf:about="">
        <dc:format>image/svg+xml</dc:format>
        <dc:type
           rdf:resource="http://purl.org/dc/dcmitype/StillImage" />
        <dc:title></dc:title>
      </cc:Work>
    </rdf:RDF>
  </metadata>
  <defs
     id="defs851">
    <clipPath
       id="clipPath4902"
       clipPathUnits="userSpaceOnUse">
      <path
         inkscape:connector-curvature="0"
         id="path4900"
         d="M 0,0 H 3958.77 V 2486.71 H 0 Z" />
    </clipPath>
    <clipPath
       id="clipPath4522"
       clipPathUnits="userSpaceOnUse">
      <path
         inkscape:connector-curvature="0"
         id="path4520"
         d="M 0,0 H 6160.63 V 2290 H 0 Z" />
    </clipPath>
  </defs>
  <sodipodi:namedview
     pagecolor="#ffffff"
     bordercolor="#666666"
     borderopacity="1"
     objecttolerance="10"
     gridtolerance="10"
     guidetolerance="10"
     inkscape:pageopacity="0"
     inkscape:pageshadow="2"
     inkscape:window-width="2560"
     inkscape:window-height="1325"
     id="namedview849"
     showgrid="false"
     units="px"
     inkscape:zoom="0.38344087"
     inkscape:cx="871.06008"
     inkscape:cy="138.33267"
     inkscape:window-x="0"
     inkscape:window-y="25"
     inkscape:window-maximized="1"
     inkscape:current-layer="svg847"
     inkscape:document-rotation="0"
     fit-margin-top="0"
     fit-margin-left="0"
     fit-margin-right="0"
     fit-margin-bottom="0" />
  <linearGradient
     id="a"
     x1="0"
     y1="0"
     x2="0"
     y2="1">
    <stop
       offset="0"
       stop-color="#50adff"
       id="stop833" />
    <stop
       offset="1"
       stop-color="#7877fc"
       id="stop835" />
  </linearGradient>
  <linearGradient
     id="b"
     x1="0"
     y1="-1"
     x2="0"
     y2="2">
    <stop
       offset="0"
       stop-color="#50adff"
       id="stop838" />
    <stop
       offset="1"
       stop-color="#7877fc"
       id="stop840" />
  </linearGradient>
  <g
     inkscape:label="Layer 1"
     id="layer1"
     transform="matrix(5.0449148,0,0,5.0449148,1433.9203,-267.05641)"
     style="fill:#ffffff">
    <path
       inkscape:connector-curvature="0"
       id="path4524"
       style="fill:#ffffff;fill-opacity:1;fill-rule:nonzero;stroke:none;stroke-width:0.0352778"
       d="m -221.35694,98.984824 c 0.98214,0.05045 1.08374,0.05045 1.43934,0.05045 3.5052,0 4.89373,-1.642075 4.89373,-3.555965 0,-1.523647 -0.88053,-2.319514 -1.64253,-2.658533 -0.67734,-0.304448 -1.45627,-0.3556 -2.5908,-0.3556 h -3.74227 v 11.955314 h 1.64253 z m 0,-5.520585 h 1.81187 c 1.45627,0 1.9812,0.338667 2.3368,0.762 0.27093,0.322086 0.49107,0.830086 0.49107,1.40582 0,1.032969 -0.64347,2.065549 -2.20134,2.488882 -0.99906,0.270899 -1.96426,0.237032 -2.4384,0.220063 z m 9.13201,4.402985 c 0.16933,-0.236996 0.74507,-1.032969 1.778,-1.032969 0.57573,0 1.04987,0.237173 1.3208,0.355671 v -1.388887 c -0.23707,-0.1016 -0.4572,-0.2032 -0.89747,-0.2032 -1.23613,0 -1.91346,0.982169 -2.20133,1.388816 v -1.185616 h -1.55787 v 8.619451 h 1.55787 z m 5.8808,-2.083118 h -1.54093 v 8.636384 h 1.54093 z m -1.65946,-2.505781 c 0,0.541514 0.42333,0.897467 0.88053,0.897467 0.28787,0 0.9144,-0.169686 0.9144,-0.948619 0,-0.440267 -0.33867,-0.880534 -0.88053,-0.880534 -0.54187,0 -0.9144,0.406753 -0.9144,0.931686 m 5.63703,3.504813 h 1.778 v -0.982099 h -1.778 v -0.82938 c 0,-0.74542 0,-1.134534 0.18627,-1.439334 0.16933,-0.288219 0.52493,-0.541866 1.0668,-0.541866 0.4064,0 0.69427,0.11818 0.93133,0.220133 0.0677,-0.101953 0.2032,-0.254 0.27094,-0.3556 -0.18627,-0.2032 -0.64347,-0.745419 -1.69334,-0.745419 -0.7112,0 -1.2192,0.254 -1.524,0.474133 -0.762,0.576086 -0.77893,1.371953 -0.77893,2.150886 v 1.066447 h -1.2192 v 0.982099 h 1.2192 v 7.637352 h 1.54093 z m 9.13871,-0.982099 -2.62466,6.011371 -2.4384,-6.011371 h -1.71027 l 3.3528,7.806271 c -1.13453,2.5739 -1.84573,3.37015 -3.3528,3.82725 v 0.45723 c 2.1844,0.10153 3.31893,-1.20223 4.35187,-3.55603 l 3.7592,-8.534721 z m 8.29557,2.049251 c -0.0508,-0.389854 -0.16933,-1.202196 -1.04986,-1.812184 -0.62654,-0.440267 -1.45627,-0.592667 -2.1336,-0.592667 -1.94734,0 -3.13267,1.117636 -3.13267,2.557251 0,1.659432 1.49013,2.13335 2.35373,2.40453 0.93134,0.28762 1.3716,0.42309 1.71027,0.59271 0.23707,0.11853 0.8636,0.45723 0.8636,1.26957 0,0.86364 -0.762,1.43937 -1.9304,1.43937 -0.8636,0 -1.69333,-0.3048 -2.25213,-0.79579 -0.38947,-0.33874 -0.59267,-0.69399 -0.74507,-0.94795 -0.11853,0.0508 -0.32173,0.10128 -0.4572,0.1524 0.0847,0.40636 0.23707,1.28654 1.13453,1.96426 0.67734,0.4911 1.524,0.6773 2.37067,0.6773 0.93133,0 1.81187,-0.1862 2.50613,-0.74496 0.59267,-0.4742 0.94827,-1.1515 0.94827,-1.96469 0,-1.82852 -1.74413,-2.33673 -2.60773,-2.590836 -0.11854,-0.03348 -0.84667,-0.253576 -0.89747,-0.27051 -0.88053,-0.28829 -1.45627,-0.626604 -1.45627,-1.337804 0,-0.761929 0.72814,-1.320729 1.84574,-1.320729 1.60866,0 2.20133,0.982133 2.4892,1.456196 0.11853,-0.03376 0.32173,-0.101565 0.44026,-0.135467 m 7.34378,-2.049251 v 1.117565 c -0.3556,-0.507682 -1.03293,-1.473165 -2.55693,-1.473165 -1.81187,0 -3.47134,1.541216 -3.47134,4.504303 0,2.726588 1.45627,4.216368 3.36974,4.216368 1.6764,0 2.3876,-0.96489 2.65853,-1.32084 v 0.49139 c 0,1.2193 0,2.01513 -0.6096,2.70908 -0.4572,0.54187 -1.1684,0.7789 -1.8796,0.7789 -0.79587,0 -1.6256,-0.30484 -2.1844,-0.81252 -0.38947,-0.35553 -0.54187,-0.6773 -0.67733,-0.96544 l -0.49107,0.16965 c 0.508,2.42107 2.54,2.6924 3.4544,2.6924 1.45627,0 2.4384,-0.54226 3.01413,-1.1176 0.9144,-0.93127 0.9144,-2.11667 0.9144,-3.40403 v -7.586061 z m 0,6.384291 c -0.38947,0.32135 -1.08373,0.89736 -2.06587,0.89736 -1.65946,0 -2.35373,-1.60898 -2.35373,-3.251482 0,-1.947016 0.89747,-3.28482 2.286,-3.28482 0.42333,0 0.8636,0.135185 1.25307,0.38915 0.49106,0.321768 0.7112,0.69469 0.88053,0.982133 z m 11.62967,-2.201439 c 0,-2.641953 -1.55786,-4.538452 -4.08093,-4.538452 -2.30294,0 -4.25027,1.490099 -4.25027,4.809101 0,0.79583 0.1016,2.4722 1.38853,3.5898 0.94827,0.79622 2.01507,0.93168 2.70934,0.93168 1.8796,0 2.87867,-0.93168 3.302,-1.47313 0.57573,-0.7451 0.93133,-1.86266 0.93133,-3.318999 m -1.64253,0.101569 c 0,2.75981 -1.20227,3.75888 -2.52307,3.75888 -0.8636,0 -1.76107,-0.49072 -2.1844,-1.62525 -0.13547,-0.32163 -0.33867,-1.05022 -0.33867,-2.16778 0,-1.81187 0.6604,-3.657251 2.54,-3.657251 1.74379,0 2.50614,1.743816 2.50614,3.691401 m 4.92407,-7.620287 h -1.54129 v 11.955317 h 1.54129 z m 6.11258,11.955317 h 2.09974 l 1.18533,-2.6417 h 4.94453 l 1.18534,2.6417 h 2.57386 l -5.4864,-11.955317 h -0.82973 z m 7.50112,-4.21636 h -3.50485 l 1.7272,-3.877804 z m 5.45288,4.21636 h 2.26907 v -0.8975 c 0.28787,0.35567 1.04987,1.28651 2.52271,1.28651 1.69369,0 3.84422,-1.32069 3.84422,-4.80864 0,-2.692401 -1.3716,-4.605868 -3.69146,-4.605868 -1.64254,0 -2.3368,0.897467 -2.67547,1.337698 v -4.267517 h -2.26907 z m 2.26907,-6.502819 c 0,-0.01693 0.54187,-1.134533 1.84573,-1.134533 0.8636,0 1.4224,0.491137 1.76107,1.18565 0.33867,0.67744 0.38947,1.456338 0.38947,2.015103 0,2.844409 -1.3208,3.437539 -2.20134,3.437539 -0.9652,0 -1.4732,-0.60992 -1.79493,-0.9991 z m 15.7293,3.861119 c -0.59266,0.76207 -1.2192,1.55787 -2.794,1.55787 -2.67546,0 -2.96333,-2.38785 -3.04835,-3.031 h 6.67209 c -0.0169,-0.94862 -0.0339,-2.556934 -1.23614,-3.776099 -1.04986,-1.050255 -2.40453,-1.168788 -3.1496,-1.168788 -3.06528,0 -4.69053,2.066184 -4.69053,4.606184 0,2.658213 1.64253,4.809063 4.75827,4.809063 2.98026,0 3.67453,-1.77793 4.04706,-2.72658 z m -5.7912,-2.793966 c 0.22014,-0.863883 0.5588,-2.201686 2.1844,-2.201686 1.69334,0 1.8796,1.422823 1.9812,2.201686 z m 10.31558,-3.234232 h -2.26907 v 8.669898 h 2.26907 v -6.722882 c 0.38947,-0.253718 0.89747,-0.592279 1.7272,-0.592279 0.62653,0 1.0668,0.20313 1.49013,0.406365 v -1.964302 c -0.2032,-0.03387 -0.42333,-0.0508 -0.64346,-0.0508 -1.54094,0 -2.2352,0.897467 -2.57387,1.337663 z m 5.60987,0 h -1.3716 v 1.354737 h 1.3716 v 4.792131 c 0,0.7619 0.0847,1.52397 0.7112,2.13318 0.6604,0.66036 1.55787,0.7112 1.96427,0.7112 1.1176,0 1.7272,-0.38915 2.2352,-0.69423 l -0.27094,-0.54187 c -0.27093,0.0846 -0.508,0.16965 -0.8636,0.16965 -0.16933,0 -0.84666,0 -1.25306,-0.76231 -0.16969,-0.28791 -0.27094,-0.64358 -0.27094,-1.37129 v -4.436461 h 1.9812 v -1.354737 h -1.9812 v -2.353733 h -2.25213 z m 13.13321,3.437502 c 0,-0.796254 -0.0169,-1.947721 -0.8636,-2.811321 -0.49106,-0.507647 -1.43933,-0.999067 -2.91253,-0.999067 -2.57387,0 -3.2512,1.490451 -3.62373,2.319902 l 0.57573,0.288149 c 0.33867,-0.457094 0.94827,-1.287251 2.3876,-1.287251 0.64347,0 1.60867,0.220098 2.01507,1.134569 0.18626,0.423333 0.22013,0.880568 0.23706,1.320694 -0.67733,-0.202847 -1.2192,-0.372075 -2.04893,-0.372075 -2.01507,0 -3.6576,1.1176 -3.6576,3.115766 0,1.55787 1.1176,2.777 2.87867,2.777 1.60866,0 2.45533,-0.84706 2.82786,-1.2361 v 0.98213 h 2.1844 z m -2.1844,3.471266 c -0.44026,0.28762 -0.98213,0.62618 -1.778,0.62618 -1.13453,0 -1.55786,-0.7958 -1.55786,-1.54051 0,-1.10077 0.88053,-1.62567 1.8796,-1.62567 0.57573,0 1.016,0.15215 1.45626,0.32177 z m 5.549198,1.82852 h 0.829733 l 2.286,-5.045821 2.286,5.045821 h 0.812448 l 3.268486,-8.737288 h -1.811867 l -1.490133,4.318068 -0.254,0.81277 c -0.186267,-0.45724 -0.2032,-0.54187 -0.372534,-0.948657 l -1.7272,-4.182181 h -0.745066 l -2.252134,5.113868 c -0.118533,-0.42333 -0.1524,-0.5249 -0.270933,-0.914718 l -1.4224,-4.19915 h -2.353738 z m 17.952509,-2.70909 c -0.592667,0.76207 -1.2192,1.55787 -2.794,1.55787 -2.675467,0 -2.963334,-2.38785 -3.048,-3.031 h 6.671381 c -0.01658,-0.94862 -0.03351,-2.556934 -1.235781,-3.776099 -1.049867,-1.050255 -2.404533,-1.168788 -3.1496,-1.168788 -3.064934,0 -4.690534,2.066184 -4.690534,4.606184 0,2.658213 1.642534,4.809063 4.758267,4.809063 2.979914,0 3.674534,-1.77793 4.047067,-2.72658 z m -5.7912,-2.793966 c 0.220133,-0.863883 0.5588,-2.201686 2.1844,-2.201686 1.693333,0 1.8796,1.422823 1.9812,2.201686 h -4.1656" />
    <path
       inkscape:connector-curvature="0"
       id="path4526"
       style="fill:#ffffff;fill-opacity:1;fill-rule:nonzero;stroke:none;stroke-width:0.0352778"
       d="m -224.94927,83.980161 c 0.1016,0.626533 0.254,1.591733 1.08373,2.404533 1.13453,1.134534 2.794,1.1684 3.4036,1.1684 0.508,0 2.4892,0 3.77613,-1.337733 0.6096,-0.643467 1.04987,-1.591733 1.04987,-2.624667 0,-0.931333 -0.37253,-1.761067 -0.94827,-2.302933 -0.77893,-0.778934 -2.01506,-1.0668 -2.8448,-1.253067 -1.28693,-0.254 -2.20133,-0.440267 -2.55693,-1.3208 -0.0847,-0.220133 -0.1016,-0.440267 -0.1016,-0.575733 0,-1.236134 1.20227,-1.845734 2.55693,-1.845734 1.03294,0 1.86267,0.338667 2.3876,0.846667 0.3048,0.3048 0.44027,0.592666 0.59267,0.9652 l 0.69427,-0.186267 c -0.0508,-0.4064 -0.13547,-1.236133 -0.8636,-1.9812 -1.03294,-1.0668 -2.67547,-1.083733 -3.16654,-1.083733 -3.87773,0 -4.60586,2.404533 -4.60586,3.725333 0,2.7432 2.52306,3.2512 3.87773,3.522134 1.45627,0.287866 2.4892,0.6604 2.4892,1.947333 0,1.016 -0.82973,2.048934 -2.52307,2.048934 -1.016,0 -2.01506,-0.3048 -2.7432,-1.016 -0.44026,-0.440267 -0.6604,-0.897467 -0.88053,-1.337734 z m 12.4594,3.285067 h 0.82974 l 2.286,-5.046134 2.286,5.046134 h 0.8128 l 3.26813,-8.737601 h -1.81187 l -1.49013,4.318 -0.254,0.812801 c -0.18627,-0.4572 -0.2032,-0.541867 -0.37253,-0.948267 l -1.7272,-4.182534 h -0.74507 l -2.25213,5.113867 c -0.11854,-0.423333 -0.1524,-0.524933 -0.27094,-0.9144 l -1.4224,-4.199467 h -2.35373 z m 17.25825,-5.300134 c 0,-0.795867 -0.0169,-1.947333 -0.8636,-2.810933 -0.49107,-0.508 -1.43934,-0.999067 -2.91254,-0.999067 -2.57386,0 -3.2512,1.490133 -3.62373,2.319867 l 0.57573,0.287866 c 0.33867,-0.4572 0.94827,-1.286933 2.3876,-1.286933 0.64347,0 1.60867,0.220133 2.01507,1.134533 0.18627,0.423334 0.22013,0.880534 0.23707,1.3208 -0.67734,-0.2032 -1.2192,-0.372533 -2.04894,-0.372533 -2.01506,0 -3.6576,1.1176 -3.6576,3.115734 0,1.557866 1.1176,2.777066 2.87867,2.777066 1.60867,0 2.45533,-0.846666 2.82787,-1.236133 v 0.982133 h 2.1844 z m -2.1844,3.471334 c -0.44027,0.287866 -0.98214,0.626533 -1.778,0.626533 -1.13454,0 -1.55787,-0.795867 -1.55787,-1.540933 0,-1.100667 0.88053,-1.625601 1.8796,-1.625601 0.57573,0 1.016,0.1524 1.45627,0.321734 z m 11.91083,-4.097867 c 0,-0.728134 -0.0508,-1.591734 -0.69426,-2.269067 -0.4572,-0.474133 -1.18534,-0.795867 -2.0828,-0.795867 -1.64254,0 -2.3876,0.880534 -2.82787,1.388534 v -1.134534 h -2.25213 v 8.669867 h 2.25213 v -6.4516 c 0.38947,-0.440267 0.94827,-1.0668 1.8796,-1.0668 0.8128,0 1.23613,0.524933 1.3716,1.016 0.0847,0.287867 0.0847,0.592667 0.0847,0.880533 v 5.621867 h 2.26906 z m 1.28376,3.589867 c 0.0508,0.4064 0.1524,1.032933 0.72813,1.6256 0.37254,0.372533 1.23614,0.999066 2.92947,0.999066 2.4892,0 3.69147,-1.405466 3.69147,-2.912533 0,-0.728133 -0.27094,-1.3716 -0.67734,-1.794934 -0.49106,-0.508 -1.15146,-0.694266 -1.6256,-0.8128 -0.32173,-0.08467 -0.64346,-0.1524 -0.9652,-0.220133 -0.762,-0.2032 -1.54093,-0.423333 -1.54093,-1.202267 0,-0.5588 0.49107,-1.151466 1.7272,-1.151466 1.71027,0 2.1336,0.880533 2.286,1.185333 l 0.59267,-0.169333 c -0.0677,-0.338667 -0.16934,-0.846667 -0.67734,-1.3716 -0.54186,-0.5588 -1.4224,-0.948267 -2.57386,-0.948267 -2.52307,0 -3.64067,1.524 -3.64067,2.912533 0,1.5748 1.30387,2.065867 1.64253,2.184401 0.38947,0.1524 0.77894,0.237066 1.1684,0.321733 1.10067,0.237067 1.65947,0.4572 1.91347,1.016 0.0508,0.1524 0.0847,0.287867 0.0847,0.423333 0,0.0508 0,0.846667 -0.94827,1.151467 -0.28787,0.1016 -0.57573,0.118533 -0.84667,0.118533 -0.94826,0 -1.76106,-0.321733 -2.2352,-0.795866 -0.23706,-0.237067 -0.33866,-0.474134 -0.44026,-0.694267 z m 16.52482,-0.372534 c -0.59267,0.762 -1.2192,1.557867 -2.794,1.557867 -2.67547,0 -2.96334,-2.3876 -3.04765,-3.031067 h 6.67138 c -0.0169,-0.948267 -0.0339,-2.556933 -1.23613,-3.776133 -1.04987,-1.049867 -2.40454,-1.1684 -3.1496,-1.1684 -3.06494,0 -4.69054,2.065866 -4.69054,4.605866 0,2.658534 1.64254,4.809067 4.75827,4.809067 2.98027,0 3.67454,-1.778 4.04707,-2.726266 z m -5.7912,-2.794 c 0.22013,-0.8636 0.5588,-2.201333 2.1844,-2.201333 1.69333,0 1.8796,1.4224 1.9812,2.201333 z m 15.4245,0.2032 c 0,-0.795867 -0.0169,-1.947333 -0.8636,-2.810933 -0.49106,-0.508 -1.43933,-0.999067 -2.91253,-0.999067 -2.57387,0 -3.2512,1.490133 -3.62374,2.319867 l 0.57574,0.287866 c 0.33866,-0.4572 0.94826,-1.286933 2.3876,-1.286933 0.64346,0 1.60866,0.220133 2.01506,1.134533 0.18627,0.423334 0.22014,0.880534 0.23707,1.3208 -0.67733,-0.2032 -1.2192,-0.372533 -2.04893,-0.372533 -2.01507,0 -3.6576,1.1176 -3.6576,3.115734 0,1.557866 1.11795,2.777066 2.87866,2.777066 1.60867,0 2.45534,-0.846666 2.82787,-1.236133 v 0.982133 h 2.1844 z m -2.1844,3.471334 c -0.44027,0.287866 -0.98213,0.626533 -1.778,0.626533 -1.13453,0 -1.55787,-0.795867 -1.55787,-1.540933 0,-1.100667 0.88054,-1.625601 1.8796,-1.625601 0.57574,0 1.016,0.1524 1.45627,0.321734 z m 19.13432,-10.210801 h -1.6256 v 9.313334 c -0.762,0.8636 -2.11667,1.862667 -3.67454,1.862667 -1.13453,0 -2.04893,-0.524934 -2.45533,-1.1684 -0.3048,-0.474134 -0.42333,-1.134534 -0.42333,-2.421467 v -7.586134 h -1.6256 v 8.314267 c 0,1.253067 0.2032,2.116667 0.9144,2.8448 0.64346,0.677334 1.7272,1.151467 3.1496,1.151467 1.59173,0 2.91253,-0.508 4.1148,-2.116667 v 1.778 h 1.6256 z m 9.4488,5.909734 c 0,-0.795867 -0.0169,-1.608667 -0.72814,-2.269067 -0.16933,-0.135467 -0.72813,-0.643467 -1.9812,-0.643467 -1.79493,0 -2.60773,1.100667 -2.9464,1.557867 v -1.202267 h -1.524 v 8.619067 h 1.524 v -6.417733 c 0.59267,-0.999067 1.49014,-1.439334 2.31987,-1.439334 0.508,0 1.43933,0.2032 1.69369,1.134534 0.11818,0.4572 0.11818,0.897466 0.11818,1.8288 v 4.893733 h 1.524 z m 3.64737,-2.573867 h -1.54094 v 8.636 h 1.54094 z m -1.65947,-2.506134 c 0,0.541867 0.42333,0.897467 0.88053,0.897467 0.28787,0 0.9144,-0.169333 0.9144,-0.948267 0,-0.440266 -0.33866,-0.880533 -0.88053,-0.880533 -0.54187,0 -0.9144,0.4064 -0.9144,0.931333 m 9.65341,2.523067 -2.45533,5.757334 c -0.13547,0.3048 -0.1524,0.4064 -0.18592,0.575733 -0.0681,-0.287866 -0.15275,-0.508 -0.16968,-0.5588 l -2.35374,-5.774267 h -1.6764 l 3.77614,8.720667 h 0.52493 l 3.81,-8.720667 z m 9.87355,4.318 c 0.0169,-0.6096 0.0677,-2.455333 -1.27,-3.691466 -0.67734,-0.6096 -1.59174,-0.982134 -2.6924,-0.982134 -2.31987,0 -4.30107,1.710267 -4.30107,4.707467 0,3.081867 2.032,4.6228 4.318,4.6228 2.96333,0 3.62373,-2.150533 3.79307,-2.760133 -0.11818,-0.03387 -0.3048,-0.118533 -0.42334,-0.169333 -0.3048,0.474133 -1.1684,1.761066 -2.9972,1.761066 -0.254,0 -1.4732,0 -2.3368,-1.1176 -0.6604,-0.880533 -0.71084,-1.8796 -0.74506,-2.370667 z m -6.63787,-0.931333 c 0.23707,-1.9812 1.60867,-2.675467 2.6416,-2.675467 0.84667,0 2.37067,0.508 2.4892,2.675467 z m 9.76207,-1.3208 c 0.16933,-0.237067 0.74506,-1.032933 1.778,-1.032933 0.57573,0 1.04986,0.237066 1.3208,0.3556 v -1.388534 c -0.23707,-0.1016 -0.4572,-0.2032 -0.89747,-0.2032 -1.23613,0 -1.91347,0.982134 -2.20133,1.388534 v -1.185334 h -1.55787 v 8.619067 h 1.55787 z m 10.418937,-0.01693 c -0.0508,-0.389467 -0.169334,-1.202267 -1.049867,-1.811867 -0.626533,-0.440267 -1.456267,-0.592667 -2.1336,-0.592667 -1.94733,0 -3.13267,1.1176 -3.13267,2.556934 0,1.659466 1.49014,2.1336 2.35374,2.404533 0.93133,0.287867 1.371597,0.423334 1.710263,0.592667 0.237067,0.118533 0.8636,0.4572 0.8636,1.27 0,0.8636 -0.762,1.439333 -1.930047,1.439333 -0.863956,0 -1.693686,-0.3048 -2.252486,-0.795866 -0.38947,-0.338667 -0.59267,-0.694267 -0.74507,-0.948267 -0.11853,0.0508 -0.32173,0.1016 -0.4572,0.1524 0.0847,0.4064 0.23707,1.286933 1.13454,1.964267 0.67733,0.491066 1.524,0.677333 2.370663,0.677333 0.931334,0 1.811867,-0.186267 2.506134,-0.745067 0.592666,-0.474133 0.948266,-1.151466 0.948266,-1.964266 0,-1.828801 -1.744133,-2.336801 -2.607733,-2.590801 -0.118533,-0.03387 -0.846667,-0.254 -0.897114,-0.270933 -0.880886,-0.287867 -1.456616,-0.626533 -1.456616,-1.337733 0,-0.762 0.72813,-1.3208 1.84573,-1.3208 1.608667,0 2.201333,0.982133 2.4892,1.456266 0.118533,-0.03387 0.321733,-0.1016 0.440267,-0.135466 m 3.296708,-2.065867 h -1.540933 v 8.636 h 1.540933 z m -1.659466,-2.506134 c 0,0.541867 0.423333,0.897467 0.880533,0.897467 0.287867,0 0.9144,-0.169333 0.9144,-0.948267 0,-0.440266 -0.338667,-0.880533 -0.880533,-0.880533 -0.541867,0 -0.9144,0.4064 -0.9144,0.931333 m 5.579533,3.505201 h 1.81222 V 78.57843 h -1.81222 v -2.286 h -1.540933 v 2.286 h -1.185334 v 0.982134 h 1.185334 v 5.367867 c 0,1.032933 0.06773,1.7272 0.762,2.218266 0.254,0.169334 0.745067,0.4064 1.405467,0.4064 0.999066,0 1.540933,-0.474133 1.862666,-0.745066 -0.06773,-0.118534 -0.169333,-0.287867 -0.237066,-0.4064 -0.287867,0.135466 -0.592667,0.287866 -1.032934,0.287866 -1.2192,0 -1.2192,-1.083733 -1.2192,-2.1844 z m 9.363781,-0.982134 -2.624666,6.011334 -2.438401,-6.011334 h -1.710266 l 3.3528,7.806267 c -1.134534,2.573867 -1.845734,3.369734 -3.3528,3.826934 v 0.4572 c 2.1844,0.1016 3.318933,-1.202267 4.351867,-3.556 l 3.7592,-8.534401 h -1.337734" />
    <path
       inkscape:connector-curvature="0"
       id="path4528"
       style="fill:#ffffff;fill-opacity:1;fill-rule:nonzero;stroke:none;stroke-width:0.0352778"
       d="m -237.47747,101.3527 c -0.63571,-1.28517 -1.8863,-3.22682 -2.21368,-3.627963 l -0.0656,0.148837 c -0.006,0.02646 -0.57961,2.516716 -0.76517,3.522136 0.14993,-0.0755 0.40569,-0.22229 0.623,-0.34671 l 0.19544,-0.1119 0.006,0.14746 c 0.0691,1.70462 -0.23566,3.18449 -0.90629,4.39924 l -0.0123,0.0222 c -0.12347,0.0219 -0.254,0.0384 -0.38417,0.0518 l -2.17876,-1.62553 v -8.115336 c 0,-0.104069 -0.0402,-0.201788 -0.11359,-0.274813 -0.054,-0.05433 -0.12771,-0.117828 -0.21625,-0.176389 l 4.59563,-3.551415 c 0.21096,-0.16263 0.23989,-0.469547 0.0639,-0.669572 -0.0663,-0.07585 -0.1323,-0.151694 -0.19862,-0.227189 -0.16016,-0.182386 -0.43392,-0.210255 -0.62688,-0.06279 l -4.48487,3.413831 c -0.44591,-0.14217 -1.37971,-0.391584 -2.407,-0.391584 -1.25589,0 -2.36933,0.31362 -3.32155,0.933098 v -1.369484 c 0.4517,-0.02434 1.09926,-0.113947 1.75479,-0.392994 0.10527,-0.0448 0.17505,-0.154517 0.17787,-0.277284 l 0.0261,-1.090083 c 0.003,-0.118181 -0.0565,-0.227189 -0.15314,-0.281164 -0.25302,-0.140406 -0.82515,-0.385939 -1.80563,-0.461433 V 90.72706 c 0,-0.197908 -0.16054,-0.358069 -0.35831,-0.358069 h -0.50352 c -0.19816,0 -0.35842,0.160161 -0.35842,0.358069 v 0.210609 c -0.98048,0.07549 -1.55237,0.321027 -1.80538,0.461433 -0.0966,0.05397 -0.156,0.162983 -0.15325,0.281164 l 0.0262,1.090083 c 0.003,0.122767 0.0725,0.232481 0.1778,0.277284 0.65553,0.279047 1.3032,0.368652 1.75465,0.392994 v 1.369484 c -0.95197,-0.619478 -2.06527,-0.933098 -3.32123,-0.933098 -0.88868,0 -1.70695,0.18662 -2.20073,0.329142 l -1.9823,-1.467203 c 0.0915,-0.229658 0.14192,-0.48013 0.14192,-0.741892 0,-1.11125 -0.90067,-2.012244 -2.01192,-2.012244 -1.11125,0 -2.01207,0.900994 -2.01207,2.012244 0,1.11125 0.90082,2.011892 2.01207,2.011892 0.40432,0 0.78066,-0.119591 1.09611,-0.324908 l 2.11995,1.569508 c -0.19265,0.07126 -0.34311,0.194381 -0.43737,0.288573 -0.0732,0.07303 -0.11356,0.170744 -0.11356,0.274813 v 7.967902 l -1.51652,1.12283 c -0.23718,0.006 -0.47957,0.0624 -0.63624,0.17046 -1.20689,-1.74103 -2.17276,-3.98819 -2.09642,-6.136004 -1.01518,2.271284 -0.14746,4.974164 1.05488,7.035864 l -0.4367,0.29394 c -0.0573,0.0384 0.0427,0.28786 0.2238,0.55725 l 0.18644,0.27657 c 0.1808,0.26886 0.37416,0.45586 0.43177,0.41741 l 0.49953,-0.33623 c 1.61188,1.73083 3.911,3.31265 6.34915,3.01625 -2.08029,-0.6011 -3.86771,-2.05701 -5.189,-3.7429 0.1217,-0.096 0.17088,-0.32671 0.24722,-0.50423 l 2.08277,-1.54118 c 0.60649,-0.19625 1.34316,-0.38241 1.96204,-0.38241 0.98161,0 1.90916,0.14566 2.67797,0.39014 -0.002,0.004 0.009,0.006 0.0303,0.009 l 0.8406,0.27022 c -0.002,0.0152 -0.002,0.0307 -0.002,0.0462 v 3.85244 c 0,0.26212 0.21262,0.47473 0.47515,0.47473 h 0.26995 c 0.26264,0 0.47515,-0.21261 0.47515,-0.47473 v -3.85244 c 0,-0.0155 -7e-4,-0.031 -0.002,-0.0462 l 0.84088,-0.27022 c 0.0212,-0.003 0.032,-0.006 0.0306,-0.009 0.76842,-0.24448 1.69608,-0.39014 2.67716,-0.39014 0.50765,0 1.09361,0.12485 1.62278,0.27795 l 2.88184,2.14588 c 0.0409,0.17046 0.078,0.35073 0.10301,0.52684 -1.20756,1.18978 -2.65465,1.73411 -3.66289,1.98106 l -0.12277,0.0301 0.0124,-0.12626 c 0.0173,-0.17321 0.0381,-0.34889 0.0575,-0.50697 0.0173,-0.14111 0.036,-0.29309 0.0448,-0.39935 -0.83185,0.56127 -2.8334,2.01676 -2.84511,2.02392 l -0.1167,0.11247 c 0.52447,0.1083 2.67642,0.35705 4.0466,0.37606 -0.14993,-0.12167 -0.35948,-0.29175 -0.53833,-0.43423 l -0.13723,-0.1094 0.16827,-0.0476 c 1.02306,-0.28829 2.45392,-0.86046 3.69888,-1.97418 0.63358,-0.13865 1.52223,-0.52282 1.52223,-0.52282 0,0 0,-0.70806 -0.0519,-1.3166 0.81668,-1.40434 1.18816,-3.11147 1.10243,-5.0782 l -0.007,-0.1506 0.13547,0.066 c 0.24694,0.12058 0.68403,0.32314 0.95003,0.44619 m -23.02122,-8.274396 c -0.61475,0 -1.11249,-0.498475 -1.11249,-1.113014 0,-0.614186 0.49774,-1.112308 1.11249,-1.112308 0.61447,0 1.1122,0.498122 1.1122,1.112308 0,0.614539 -0.49773,1.113014 -1.1122,1.113014 m 16.19814,10.043936 c -0.54821,-0.22049 -1.19309,-0.33239 -1.92017,-0.33239 -1.66193,0 -3.32105,0.56942 -4.01764,0.84324 -0.11688,0.055 -0.34851,0.1414 -0.25989,0.10764 0,0 -0.0601,-0.0202 -0.25273,-0.10488 -0.69208,-0.27274 -2.35744,-0.846 -4.02499,-0.846 -0.72721,0 -1.3717,0.1119 -1.92017,0.33239 v -8.468783 c 0.31997,-0.106891 1.19296,-0.358775 2.26632,-0.358775 1.4001,0 2.72782,0.481542 3.7163,1.301398 l 0.21527,0.246944 0.21509,-0.246944 c 0.98862,-0.819856 2.31655,-1.301398 3.71637,-1.301398 1.07315,0 1.94627,0.251884 2.26624,0.358775 v 8.468783" />
    <path
       inkscape:connector-curvature="0"
       id="path4530"
       style="fill:#ffffff;fill-opacity:1;fill-rule:nonzero;stroke:none;stroke-width:0.0352778"
       d="m -249.84163,96.317506 c -0.0124,0.03916 -0.008,0.08079 0.0121,0.116029 l 0.0139,0.02466 c 0.0251,0.04699 0.075,0.07705 0.1294,0.07705 0.022,0 0.0435,-0.0047 0.0635,-0.01489 0.38379,-0.18168 1.41305,-0.605014 2.67663,-0.605014 0.40887,0 0.80998,0.0448 1.19274,0.134056 l 0.0247,0.0039 h 0.008 c 0.0667,0 0.12523,-0.04445 0.14322,-0.11042 l 0.006,-0.02681 c 0.01,-0.03881 0.004,-0.07973 -0.0169,-0.115006 -0.0208,-0.03387 -0.054,-0.05821 -0.0935,-0.06738 -0.41239,-0.09701 -0.84419,-0.145697 -1.28164,-0.145697 -1.33576,0 -2.40457,0.44838 -2.8013,0.640644 -0.0372,0.01764 -0.0656,0.05045 -0.0777,0.0889" />
    <path
       inkscape:connector-curvature="0"
       id="path4532"
       style="fill:#ffffff;fill-opacity:1;fill-rule:nonzero;stroke:none;stroke-width:0.0352778"
       d="m -249.81573,97.413587 c 0.0256,0.04727 0.0752,0.0769 0.12954,0.0769 0.022,0 0.043,-0.005 0.0635,-0.01446 0.38104,-0.182068 1.40381,-0.605402 2.67487,-0.605402 0.40957,0 0.81139,0.0448 1.1945,0.134091 l 0.0247,0.0039 h 0.008 c 0.0667,0 0.12523,-0.04438 0.14358,-0.110808 l 0.006,-0.02579 c 0.0106,-0.04008 0.004,-0.081 -0.0162,-0.115605 -0.0208,-0.0339 -0.054,-0.05789 -0.0935,-0.0671 -0.41311,-0.09701 -0.8442,-0.146086 -1.282,-0.146086 -1.33424,0 -2.40319,0.447746 -2.80172,0.640645 -0.0383,0.01986 -0.0659,0.05225 -0.0773,0.0907 -0.0117,0.03842 -0.008,0.08004 0.0121,0.115746 l 0.0138,0.02328" />
    <path
       inkscape:connector-curvature="0"
       id="path4534"
       style="fill:#ffffff;fill-opacity:1;fill-rule:nonzero;stroke:none;stroke-width:0.0352778"
       d="m -245.68061,97.583626 c -0.41275,-0.09673 -0.84455,-0.145662 -1.282,-0.145662 -1.33438,0 -2.40305,0.447604 -2.80187,0.640679 -0.0379,0.01926 -0.0656,0.05179 -0.077,0.09066 -0.0124,0.03912 -0.008,0.08005 0.0121,0.115606 l 0.0133,0.02508 c 0.0261,0.04685 0.0757,0.07691 0.12997,0.07691 0.0221,0 0.0434,-0.005 0.0635,-0.01475 0.38379,-0.181752 1.41291,-0.605085 2.67649,-0.605085 0.40852,0 0.80998,0.04477 1.19239,0.134056 l 0.025,0.0039 h 0.008 c 0.067,0 0.12558,-0.04438 0.14322,-0.110384 l 0.006,-0.02688 c 0.0102,-0.03874 0.004,-0.07895 -0.0162,-0.113947 -0.0208,-0.03461 -0.054,-0.06022 -0.0938,-0.07017" />
    <path
       inkscape:connector-curvature="0"
       id="path4536"
       style="fill:#ffffff;fill-opacity:1;fill-rule:nonzero;stroke:none;stroke-width:0.0352778"
       d="m -249.81739,99.293504 c 0.0261,0.04727 0.0757,0.07662 0.12954,0.07662 0.0218,0 0.0427,-0.0047 0.0638,-0.01489 0.38227,-0.18161 1.40888,-0.605648 2.67659,-0.605648 0.40922,0 0.81104,0.04547 1.1938,0.134761 l 0.025,0.0035 h 0.008 c 0.0667,0 0.12558,-0.0441 0.14322,-0.110384 l 0.006,-0.02575 c 0.0102,-0.04025 0.005,-0.08117 -0.0166,-0.115782 -0.0205,-0.03415 -0.054,-0.05856 -0.0931,-0.06766 -0.41311,-0.09631 -0.84561,-0.145626 -1.28306,-0.145626 -1.33953,0 -2.40517,0.447569 -2.80218,0.640644 -0.0376,0.01901 -0.0653,0.0514 -0.0777,0.09204 -0.0113,0.03845 -0.008,0.07966 0.0121,0.113983 l 0.014,0.02424" />
    <path
       inkscape:connector-curvature="0"
       id="path4538"
       style="fill:#ffffff;fill-opacity:1;fill-rule:nonzero;stroke:none;stroke-width:0.0352778"
       d="m -245.68202,99.478713 c -0.41311,-0.09659 -0.84455,-0.145662 -1.28235,-0.145662 -1.33523,0 -2.4039,0.447992 -2.80134,0.640644 -0.038,0.01792 -0.0652,0.04955 -0.0773,0.08831 -0.0124,0.0396 -0.008,0.0812 0.0117,0.11615 l 0.0138,0.0254 c 0.0264,0.0473 0.076,0.0766 0.12996,0.0766 0.0216,0 0.0427,-0.005 0.0637,-0.0145 0.38198,-0.18207 1.40709,-0.605759 2.6761,-0.605759 0.40922,0 0.81103,0.04519 1.1945,0.134761 l 0.0243,0.0036 h 0.008 c 0.0667,0 0.12559,-0.04452 0.14394,-0.110525 l 0.006,-0.02646 c 0.0106,-0.03916 0.004,-0.08008 -0.0166,-0.114653 -0.0208,-0.03461 -0.0547,-0.05884 -0.0945,-0.06809" />
    <path
       inkscape:connector-curvature="0"
       id="path4540"
       style="fill:#ffffff;fill-opacity:1;fill-rule:nonzero;stroke:none;stroke-width:0.0352778"
       d="m -245.68061,100.41357 c -0.41346,-0.0963 -0.84455,-0.14608 -1.282,-0.14608 -1.3341,0 -2.40305,0.44841 -2.80187,0.64135 -0.0379,0.0194 -0.0656,0.0515 -0.077,0.0911 -0.012,0.0377 -0.008,0.0787 0.0117,0.11493 l 0.0137,0.0233 c 0.0261,0.0477 0.0757,0.0773 0.12997,0.0773 0.0221,0 0.0434,-0.005 0.0635,-0.0145 0.38379,-0.18231 1.41291,-0.60565 2.67685,-0.60565 0.40851,0 0.80962,0.0451 1.19203,0.13438 l 0.025,0.004 h 0.008 c 0.067,0 0.12558,-0.0441 0.14322,-0.11077 l 0.006,-0.0265 c 0.0102,-0.0387 0.004,-0.0797 -0.0169,-0.11465 -0.0208,-0.0349 -0.054,-0.0586 -0.0931,-0.0681" />
    <path
       inkscape:connector-curvature="0"
       id="path4542"
       style="fill:#ffffff;fill-opacity:1;fill-rule:nonzero;stroke:none;stroke-width:0.0352778"
       d="m -245.67885,101.35203 c -0.41346,-0.0968 -0.84455,-0.14566 -1.28235,-0.14566 -1.33484,0 -2.40351,0.44757 -2.80148,0.64065 -0.0379,0.019 -0.0657,0.0514 -0.0774,0.0905 -0.012,0.0384 -0.007,0.0802 0.0241,0.13878 0.0258,0.0476 0.0754,0.0772 0.12997,0.0772 0.0221,0 0.0434,-0.005 0.0635,-0.0145 0.38351,-0.18203 1.41249,-0.60565 2.67649,-0.60565 0.40852,0 0.80963,0.0455 1.19239,0.13437 l 0.025,0.004 h 0.008 c 0.067,0 0.12558,-0.0448 0.14287,-0.10859 l 0.006,-0.0269 c 0.0106,-0.0402 0.005,-0.0818 -0.0166,-0.11641 -0.0201,-0.0338 -0.0533,-0.0586 -0.0914,-0.0677" />
    <path
       inkscape:connector-curvature="0"
       id="path4544"
       style="fill:#ffffff;fill-opacity:1;fill-rule:nonzero;stroke:none;stroke-width:0.0352778"
       d="m -252.02705,99.063529 c -0.39635,-0.192652 -1.46279,-0.64068 -2.80197,-0.64068 -0.43808,0 -0.8701,0.04907 -1.28323,0.145662 -0.0394,0.0088 -0.0725,0.03323 -0.0933,0.06713 -0.0207,0.03415 -0.0266,0.0762 -0.0169,0.1149 l 0.006,0.02716 c 0.0182,0.06463 0.077,0.110525 0.14372,0.110525 l 0.0248,-0.0018 0.008,-0.0018 c 0.38298,-0.08957 0.7844,-0.134761 1.19408,-0.134761 1.26725,0 2.29443,0.423333 2.67684,0.605366 0.0203,0.0102 0.0415,0.01489 0.0635,0.01489 0.0544,0 0.10319,-0.02963 0.1294,-0.07729 l 0.0139,-0.0229 c 0.02,-0.0357 0.0241,-0.07662 0.0121,-0.115323 -0.0117,-0.0393 -0.0402,-0.07236 -0.0774,-0.09109" />
    <path
       inkscape:connector-curvature="0"
       id="path4546"
       style="fill:#ffffff;fill-opacity:1;fill-rule:nonzero;stroke:none;stroke-width:0.0352778"
       d="m -252.02705,99.973695 c -0.39772,-0.192228 -1.46653,-0.640644 -2.8013,-0.640644 -0.43808,0 -0.86939,0.04907 -1.28239,0.145662 -0.0398,0.0092 -0.0733,0.0332 -0.0955,0.06847 -0.0204,0.03489 -0.0259,0.07581 -0.0163,0.113559 l 0.006,0.02716 c 0.0182,0.0653 0.077,0.110525 0.14372,0.110525 l 0.0248,-0.0018 0.008,-0.0018 c 0.38298,-0.08957 0.78479,-0.134761 1.19436,-0.134761 1.26806,0 2.29444,0.423724 2.67656,0.606034 0.0203,0.01 0.0415,0.0145 0.0635,0.0145 0.0537,0 0.10347,-0.0301 0.12912,-0.0773 l 0.0139,-0.0247 c 0.0203,-0.0353 0.0244,-0.0765 0.0124,-0.11673 -0.0128,-0.0391 -0.0405,-0.07094 -0.0774,-0.08819" />
    <path
       inkscape:connector-curvature="0"
       id="path4548"
       style="fill:#ffffff;fill-opacity:1;fill-rule:nonzero;stroke:none;stroke-width:0.0352778"
       d="m -252.02885,100.90884 c -0.39783,-0.19294 -1.46706,-0.64093 -2.80141,-0.64093 -0.43741,0 -0.86857,0.0491 -1.28213,0.14609 -0.0394,0.009 -0.0725,0.0331 -0.0932,0.068 -0.0207,0.0346 -0.0266,0.0758 -0.0165,0.11398 l 0.006,0.0271 c 0.0179,0.0649 0.077,0.11081 0.14358,0.11081 l 0.0249,-0.002 0.008,-0.002 c 0.38241,-0.0893 0.78355,-0.13438 1.19271,-0.13438 1.26379,0 2.29291,0.42334 2.67599,0.60541 0.0202,0.009 0.0415,0.0145 0.0642,0.0145 0.0543,0 0.10323,-0.0294 0.12954,-0.077 l 0.0138,-0.0229 c 0.02,-0.036 0.0241,-0.0769 0.0124,-0.11465 -0.0117,-0.0395 -0.0397,-0.0724 -0.078,-0.0918" />
    <path
       inkscape:connector-curvature="0"
       id="path4550"
       style="fill:#ffffff;fill-opacity:1;fill-rule:nonzero;stroke:none;stroke-width:0.0352778"
       d="m -252.03008,101.84702 c -0.39773,-0.19266 -1.4664,-0.64065 -2.80141,-0.64065 -0.43769,0 -0.86914,0.0489 -1.28284,0.14566 -0.038,0.009 -0.07,0.0331 -0.0911,0.0677 -0.0212,0.0357 -0.027,0.0773 -0.0171,0.11532 l 0.006,0.0265 c 0.0179,0.065 0.0768,0.1101 0.14347,0.1101 l 0.0249,-0.002 0.008,-0.002 c 0.38213,-0.0889 0.78356,-0.13437 1.19271,-0.13437 1.26379,0 2.29319,0.42362 2.67599,0.60537 0.02,0.01 0.0415,0.0147 0.064,0.0147 0.0539,0 0.10308,-0.0292 0.12954,-0.0769 l 0.0127,-0.0236 c 0.0193,-0.035 0.0238,-0.0755 0.0117,-0.11508 -0.012,-0.0391 -0.0401,-0.0724 -0.0773,-0.0909" />
    <path
       inkscape:connector-curvature="0"
       id="path4552"
       style="fill:#ffffff;fill-opacity:1;fill-rule:nonzero;stroke:none;stroke-width:0.0352778"
       d="m -255.74473,97.841894 c 0.29171,-0.05016 0.59408,-0.07511 0.89821,-0.07511 1.26351,0 2.29263,0.423615 2.67656,0.605649 0.02,0.0095 0.0413,0.01446 0.0631,0.01446 0.0542,0 0.10389,-0.03006 0.1294,-0.07691 l 0.0138,-0.02508 c 0.0201,-0.03528 0.0245,-0.07648 0.0128,-0.114653 -0.0117,-0.03955 -0.0397,-0.0726 -0.0777,-0.09162 -0.38682,-0.18743 -1.41552,-0.619583 -2.70718,-0.639974 l 0.001,-0.567337 c 1.22011,0.02399 2.19632,0.428696 2.5637,0.604414 0.02,0.0098 0.0413,0.01446 0.0638,0.01446 0.0546,0 0.10361,-0.02977 0.12982,-0.07662 l 0.0138,-0.02328 c 0.0197,-0.0357 0.0241,-0.07733 0.012,-0.115746 -0.0124,-0.03874 -0.04,-0.07193 -0.0773,-0.0907 -0.21043,-0.101812 -1.31438,-0.60385 -2.7051,-0.638175 l 10e-4,-0.629285 c 1.21324,0.02469 2.19244,0.428978 2.56162,0.603955 0.02,0.0102 0.0413,0.01489 0.0638,0.01489 0.0542,0 0.10389,-0.02963 0.1294,-0.07705 l 0.0138,-0.02466 c 0.0201,-0.03524 0.0248,-0.07652 0.0121,-0.116029 -0.0124,-0.03986 -0.0403,-0.07126 -0.077,-0.0889 -0.39758,-0.192617 -1.46639,-0.640644 -2.80169,-0.640644 -0.43769,0 -0.86928,0.04904 -1.28005,0.147108 l -0.1166,0.05856 0.003,2.147041 0.47942,-0.09878" />
    <path
       inkscape:connector-curvature="0"
       id="path4554"
       style="fill:#ffffff;fill-opacity:1;fill-rule:nonzero;stroke:none;stroke-width:0.0352778"
       d="m -246.8663,77.777622 c -0.0106,0.0014 -0.031,-7.06e-4 -0.042,3.52e-4 0.001,0.0014 0.042,-3.52e-4 0.042,-3.52e-4 -0.63641,0.13335 -1.5682,1.354666 -1.73359,1.578327 -0.0459,0.358776 0.0142,0.518231 0.19816,0.778934 0.19293,0.271286 0.0918,0.543278 -0.0943,0.856897 -0.13533,0.236361 -0.40485,0.883356 -0.49058,1.196975 -0.15638,0.17145 -0.37757,0.322086 -0.57188,0.379942 -0.0401,-0.02187 -0.0563,-0.140053 -0.0563,-0.140053 -0.30621,-0.451203 -0.86293,-0.397933 -0.86293,-0.397933 -0.60138,0.102305 -0.62467,0.292453 -0.62467,0.292453 0.12926,-0.01411 0.52088,0.140405 0.52088,0.140405 0.002,0.09243 0.15932,0.1778 0.15932,0.1778 -0.36534,-0.06773 -0.67402,0.144286 -0.67402,0.144286 -0.55767,0.384528 -0.36089,0.806098 -0.36089,0.806098 9.5e-4,-0.331612 0.48535,-0.40887 0.48535,-0.40887 0.21082,0.193675 1.03173,-0.141111 1.03173,-0.141111 l -0.72238,0.591961 c -0.27217,0.362656 -0.11091,0.725664 -0.11091,0.725664 0.011,-0.267406 0.3781,-0.359128 0.3781,-0.359128 0.24543,-0.02611 0.33101,-0.150283 0.33101,-0.150283 0.445,-0.09525 0.47901,-0.553156 0.47901,-0.553156 0.67595,-0.281869 1.3589,-0.131586 1.3589,-0.131586 0.41843,0.2413 0.71053,0.430742 0.71053,0.430742 l 0.0794,-0.122767 c 0.31115,-0.06703 0.46214,0.311503 0.46214,0.311503 0.10619,-0.499886 -0.28751,-0.667103 -0.28751,-0.667103 -0.16087,-0.191205 -0.46144,-0.179917 -0.46144,-0.179917 l -0.50489,-0.141111 c -0.004,-0.0067 -0.15198,-0.05433 -0.15572,-0.06209 -0.0448,-0.124883 -0.11218,-0.270933 -0.0894,-0.4064 0.035,-0.139347 0.0777,-0.250119 0.12788,-0.3556 0.26335,-0.352777 0.66167,-0.782108 0.79467,-1.062214 0.14111,-0.294569 0.23848,-0.76835 0.61842,-0.970491 0.15381,-0.07796 0.35313,-0.1524 0.52493,-0.232128 l 7.1e-4,7.06e-4 c 0,0 0.007,-0.0035 0.0166,-0.0088 0.091,-0.04269 0.17357,-0.08714 0.23495,-0.134408 0.30903,-0.165453 0.508,-0.306211 0.508,-0.306211 -0.25576,-0.236009 -0.71826,-0.690034 -1.2192,-1.481314" />
    <path
       inkscape:connector-curvature="0"
       id="path4556"
       style="fill:#ffffff;fill-opacity:1;fill-rule:nonzero;stroke:none;stroke-width:0.0352778"
       d="m -248.39633,77.250572 c 0.46535,0.115358 0.72393,0.513997 0.77015,0.591255 0.18873,-0.154517 0.3817,-0.275872 0.55739,-0.312561 0,0 -0.49707,-0.834319 -1.29435,-0.770819 -0.0131,0 -0.0269,0.0011 -0.0405,0.0021 -0.001,0 -0.003,0 -0.004,0 l -2.4e-4,3.53e-4 c -0.40655,0.02787 -1.13814,0.411339 -2.8108,1.504597 -2.58205,1.688042 -3.95111,0.765175 -3.95111,0.765175 -0.48507,1.304573 -1.26834,1.626659 -1.26834,1.626659 0,0 0.23149,0.221191 0.66777,0.430741 0.013,-0.01199 0.0237,-0.02152 0.0368,-0.03457 0.14153,-0.136878 0.32067,-0.332316 0.4826,-0.544689 0.0818,-0.10548 0.15794,-0.215547 0.22599,-0.32138 0.0677,-0.106186 0.12858,-0.207786 0.17473,-0.298097 0.0491,-0.0889 0.0852,-0.165806 0.10915,-0.220134 0.0252,-0.05398 0.0393,-0.08537 0.0393,-0.08537 0,0 -0.007,0.03316 -0.0195,0.09207 -0.0114,0.05856 -0.0299,0.142169 -0.0585,0.241653 -0.0259,0.100189 -0.0632,0.215194 -0.1076,0.337255 -0.0444,0.122767 -0.0967,0.252236 -0.15571,0.378531 -0.10393,0.227189 -0.22588,0.444147 -0.33391,0.615597 0.2606,0.08925 0.56625,0.161925 0.91557,0.191911 0.0103,-0.01482 0.02,-0.02752 0.031,-0.04374 0.11257,-0.16122 0.25163,-0.387703 0.36985,-0.627239 0.0602,-0.118886 0.11412,-0.2413 0.16083,-0.35807 0.0461,-0.117122 0.0863,-0.2286 0.11494,-0.325966 0.0306,-0.09666 0.0516,-0.179211 0.0649,-0.237067 0.0142,-0.05821 0.022,-0.09102 0.022,-0.09102 0,0 -2.5e-4,0.03387 -10e-4,0.09384 -2.5e-4,0.05962 -0.002,0.145345 -0.0113,0.248709 -0.006,0.103011 -0.0211,0.222955 -0.0416,0.351719 -0.0198,0.128411 -0.0469,0.265642 -0.0808,0.400756 -0.0517,0.214841 -0.11906,0.425097 -0.18465,0.601839 0.35416,-0.0078 0.74401,-0.06068 1.16763,-0.178859 0.007,-0.02046 0.0134,-0.03845 0.0209,-0.06068 0.0622,-0.186266 0.13162,-0.443088 0.17709,-0.705908 0.0242,-0.13088 0.0415,-0.263878 0.0529,-0.389114 0.0117,-0.125589 0.0186,-0.243416 0.0182,-0.344664 0.002,-0.1016 -9.9e-4,-0.186619 -0.005,-0.245886 -0.003,-0.05962 -0.004,-0.09384 -0.004,-0.09384 0,0 0.009,0.03246 0.0251,0.09031 0.0169,0.0575 0.0391,0.140406 0.0595,0.241653 0.023,0.100895 0.0427,0.220134 0.0597,0.34925 0.0173,0.129117 0.03,0.268111 0.0358,0.407459 0.0108,0.21343 0.007,0.427213 -0.005,0.611011 0.27919,-0.102659 0.57094,-0.232128 0.87559,-0.39617 0.1203,-0.06421 0.23622,-0.128058 0.35098,-0.191558 -0.001,-0.173214 -0.012,-0.376767 -0.037,-0.581025 -0.0152,-0.132645 -0.0372,-0.264936 -0.0629,-0.388409 -0.0255,-0.123119 -0.053,-0.237772 -0.0829,-0.335138 -0.0275,-0.09772 -0.0554,-0.1778 -0.0762,-0.233539 -0.02,-0.05645 -0.0314,-0.08819 -0.0314,-0.08819 0,0 0.0179,0.02857 0.0502,0.07902 0.0331,0.05009 0.0784,0.12312 0.12732,0.213784 0.0514,0.08996 0.10516,0.198261 0.15875,0.317147 0.0539,0.118181 0.10696,0.247297 0.15296,0.379236 0.0546,0.151342 0.10005,0.304095 0.13769,0.448028 0.36668,-0.208844 0.69878,-0.409222 0.99286,-0.600428 -0.0234,-0.181328 -0.067,-0.415572 -0.13145,-0.648405 -0.0332,-0.121709 -0.0722,-0.242006 -0.11327,-0.353837 -0.0413,-0.11183 -0.0833,-0.215547 -0.1246,-0.301977 -0.0391,-0.08784 -0.0763,-0.159103 -0.10319,-0.208139 -0.0267,-0.05045 -0.0419,-0.07867 -0.0419,-0.07867 0,0 0.0214,0.02434 0.0588,0.06632 0.0382,0.04233 0.0915,0.103716 0.15117,0.180975 0.0614,0.07655 0.1276,0.169686 0.19639,0.271991 0.068,0.102659 0.13751,0.215195 0.20048,0.331611 0.0961,0.172861 0.18052,0.352778 0.24681,0.511881 0.18605,-0.130175 0.3521,-0.255411 0.4954,-0.373945 h 4.3e-4 l 0.15504,-0.117475 c 0,0 0.0271,-0.186266 -0.0429,-0.347133 -0.0379,-0.09137 -0.0795,-0.185208 -0.1257,-0.279047 -0.0552,-0.113595 -0.11617,-0.224367 -0.17776,-0.325967 -0.061,-0.102305 -0.12196,-0.19685 -0.17844,-0.273403 -0.0553,-0.07937 -0.10502,-0.142522 -0.14086,-0.185914 -0.0355,-0.0441 -0.0557,-0.06914 -0.0557,-0.06914 0,0 0.0256,0.02011 0.0702,0.05468 0.0456,0.03422 0.1094,0.08396 0.18217,0.149225 0.075,0.06315 0.15748,0.142522 0.24416,0.230011 0.0863,0.08819 0.17501,0.185914 0.25922,0.288219 0.0131,0.01552 0.0254,0.03175 0.038,0.04762 0,0 0.22532,0.281164 0.22366,0.55492 0,0 0.31352,-0.43815 0.70066,-0.817739 -0.0804,-0.549275 -0.58558,-0.829381 -0.52356,-0.814211" />
    <path
       inkscape:connector-curvature="0"
       id="path4558"
       style="fill:#ffffff;fill-opacity:1;fill-rule:nonzero;stroke:none;stroke-width:0.0352778"
       d="m -259.68801,72.392468 c 0.86999,0.140759 2.10675,-0.402872 2.60216,-0.965905 -0.0773,-0.152753 -0.31969,-0.213783 -0.45861,-0.192264 -0.6598,0.492478 -2.06527,1.121833 -2.96718,0.436739 0,0 -0.84956,-0.624417 -0.27905,-1.63442 0,0 0.16094,0.514703 0.45791,0.545042 0,0 0.0667,-0.849842 0.57065,-1.010356 0,0 -0.70199,-0.267758 -1.26174,0.295981 -0.68806,0.692503 -0.18616,2.279297 1.33586,2.525183" />
    <path
       inkscape:connector-curvature="0"
       id="path4560"
       style="fill:#ffffff;fill-opacity:1;fill-rule:nonzero;stroke:none;stroke-width:0.0352778"
       d="m -254.44358,77.587122 c 0.79841,-0.12947 1.58613,0.23883 1.58613,0.23883 0.24884,-0.877711 -0.1046,-1.139472 -0.1046,-1.139472 -0.74084,0.745419 -1.48153,0.900642 -1.48153,0.900642" />
    <path
       inkscape:connector-curvature="0"
       id="path4562"
       style="fill:#ffffff;fill-opacity:1;fill-rule:nonzero;stroke:none;stroke-width:0.0352778"
       d="m -251.56639,76.77538 c 0,0 0.18605,-0.794103 -0.4287,-1.157817 0,0 -0.32565,0.556331 -0.655,0.833614 0,0 0.23717,0.329495 0.14746,0.633236 0,0 0.51816,-0.470253 0.93624,-0.309033" />
    <path
       inkscape:connector-curvature="0"
       id="path4564"
       style="fill:#ffffff;fill-opacity:1;fill-rule:nonzero;stroke:none;stroke-width:0.0352778"
       d="m -249.43304,74.840041 c 0,0 0.26582,-1.00965 1.20784,-1.00965 0,0 -0.52186,-0.863247 -1.79229,-0.887589 -1.27,-0.02505 -1.36285,1.002947 -1.36285,1.002947 v 0.02928 c 6.7e-4,-0.01376 0.73226,-0.419806 1.49613,0.220486 0,0 0.39868,0.277636 0.45117,0.644525" />
    <path
       inkscape:connector-curvature="0"
       id="path4566"
       style="fill:#ffffff;fill-opacity:1;fill-rule:nonzero;stroke:none;stroke-width:0.0352778"
       d="m -257.0583,75.799596 c -0.0755,0.06632 -0.15847,0.149931 -0.24405,0.240595 -0.0856,0.09102 -0.17321,0.191206 -0.25506,0.295628 -0.16534,0.206375 -0.31076,0.426508 -0.40844,0.595136 -0.0214,0.03634 -0.0394,0.06914 -0.0567,0.100189 -0.003,0.0095 -0.006,0.0187 -0.009,0.02787 -0.0963,0.320675 -0.16883,0.641703 -0.19984,0.941917 0.0697,-0.08255 0.14291,-0.166511 0.22009,-0.24765 0.0948,-0.100189 0.19389,-0.195439 0.28939,-0.280811 0.0961,-0.08502 0.18715,-0.161925 0.26966,-0.222603 0.0804,-0.06244 0.15021,-0.110067 0.19943,-0.142522 0.049,-0.03316 0.077,-0.05151 0.077,-0.05151 0,0 -0.0231,0.02434 -0.0634,0.06738 -0.0408,0.04233 -0.0975,0.104069 -0.16079,0.18168 -0.0653,0.07585 -0.13547,0.168981 -0.20768,0.269875 -0.0718,0.101248 -0.14429,0.211667 -0.21043,0.325262 -0.13477,0.22613 -0.24762,0.461786 -0.32079,0.64135 -0.0292,0.06985 -0.0504,0.127352 -0.0681,0.175683 0.046,0.210608 0.13271,0.395111 0.27132,0.540808 -0.004,-0.0095 0.0449,-0.09984 0.12404,-0.233186 0.16714,-0.296686 0.35207,-0.576792 0.5468,-0.858308 -7e-4,-7.06e-4 -10e-4,-7.06e-4 -10e-4,-7.06e-4 0.30039,-0.44838 0.7057,-0.93345 0.83894,-1.000478 0,0 -0.28995,-0.915105 -0.0114,-1.843969 0.12386,-0.595136 0.66213,-1.557161 0.71903,-2.208389 -0.17815,0.221191 -0.31542,0.376766 -0.71903,0.430741 l -0.0759,0.216253 v -7.05e-4 l -0.30632,0.588786 c 0.15501,-0.06668 0.30868,-0.119945 0.42965,-0.153106 0.0714,-0.02046 0.13148,-0.03387 0.17392,-0.04233 0.0418,-0.0092 0.0655,-0.01446 0.0655,-0.01446 0,0 -0.0209,0.01235 -0.0582,0.03387 -0.0373,0.02081 -0.0897,0.0515 -0.14993,0.09207 -0.12196,0.07937 -0.27506,0.195439 -0.41451,0.324203 -0.14027,0.128058 -0.2672,0.2667 -0.35458,0.375002 -0.0138,0.01693 -0.0248,0.0314 -0.037,0.04657 -0.0455,0.08643 -0.0939,0.179211 -0.14761,0.287161 -0.0839,0.167922 -0.17254,0.355247 -0.26334,0.558095 -0.0419,0.09349 -0.0828,0.189794 -0.12376,0.287514 0.0991,-0.07902 0.20066,-0.153106 0.29877,-0.219076 0.10735,-0.07197 0.20877,-0.136172 0.29919,-0.184855 0.0887,-0.05115 0.16468,-0.08961 0.21855,-0.115358 0.0531,-0.02575 0.0836,-0.04057 0.0836,-0.04057 0,0 -0.0263,0.02117 -0.0722,0.05821 -0.0467,0.03669 -0.11176,0.08996 -0.18578,0.15875" />
    <path
       inkscape:connector-curvature="0"
       id="path4568"
       style="fill:#ffffff;fill-opacity:1;fill-rule:nonzero;stroke:none;stroke-width:0.0352778"
       d="m -245.92544,72.165632 c -0.0113,-0.504472 0.10865,-1.083733 0.51188,-1.358194 0.88935,-0.605367 3.30376,-0.480484 3.30376,-0.480484 -0.50271,-0.20073 -5.46064,-1.010708 -8.02068,1.412876 0,0 2.34378,-1.225551 4.03535,0.259291 0.0628,0.03951 0.11748,0.128059 0.16969,0.166511" />
    <path
       inkscape:connector-curvature="0"
       id="path4570"
       style="fill:#ffffff;fill-opacity:1;fill-rule:nonzero;stroke:none;stroke-width:0.0352778"
       d="m -246.4278,72.165632 c 0,0 -0.61736,-0.385233 -1.31833,-0.512939 -0.88007,-0.160866 -2.45117,0.124531 -3.07142,1.137356 1.58005,-0.4445 2.37433,0.201789 2.83365,0.666397 0.11183,-1.13418 1.31798,-1.239661 1.5561,-1.290814" />
    <path
       inkscape:connector-curvature="0"
       id="path4572"
       style="fill:#ffffff;fill-opacity:1;fill-rule:nonzero;stroke:none;stroke-width:0.0352778"
       d="m -251.29821,75.947763 c 0.41257,-0.946503 1.57152,-0.897819 1.57152,-0.897819 0.003,-0.175684 -0.32523,-0.714728 -1.04056,-0.879828 -0.79061,-0.182386 -1.14116,1.075267 -1.14116,1.075267 0.54818,0.09384 0.6102,0.70238 0.6102,0.70238" />
    <path
       inkscape:connector-curvature="0"
       id="path4574"
       style="fill:#ffffff;fill-opacity:1;fill-rule:nonzero;stroke:none;stroke-width:0.0352778"
       d="m -256.24426,77.410733 c -0.16263,0.04727 -0.29574,0.2667 -0.29574,0.2667 -0.44827,0.593372 -0.73575,1.055511 -1.16829,1.810455 -0.53936,0.870656 -1.06303,2.130426 -1.75369,2.790473 -0.0616,0.05715 -0.0874,0.09313 -0.18507,0.127705 -0.0977,0.03493 -0.21484,-0.139347 -0.21484,-0.139347 -0.30607,-0.45085 -0.86293,-0.398286 -0.86293,-0.398286 -0.60138,0.102658 -0.62438,0.292806 -0.62438,0.292806 0.12897,-0.01446 0.52087,0.140052 0.52087,0.140052 10e-4,0.09243 0.15918,0.178153 0.15918,0.178153 -0.3652,-0.06738 -0.67388,0.143933 -0.67388,0.143933 -0.55795,0.384881 -0.36103,0.806451 -0.36103,0.806451 9.5e-4,-0.331612 0.48521,-0.408517 0.48521,-0.408517 0.21096,0.193322 1.03201,-0.141464 1.03201,-0.141464 l -0.72266,0.591961 c -0.27199,0.362656 -0.11077,0.725664 -0.11077,0.725664 0.011,-0.267406 0.37757,-0.359128 0.37757,-0.359128 0.24585,-0.02611 0.33144,-0.150283 0.33144,-0.150283 0.44496,-0.09525 0.47925,-0.553156 0.47925,-0.553156 0.67553,-0.282222 1.35876,-0.131939 1.35876,-0.131939 0.41836,0.241653 0.71038,0.430742 0.71038,0.430742 l 0.0794,-0.123119 c 0.31143,-0.06632 0.46231,0.311855 0.46231,0.311855 0.10626,-0.499533 -0.28758,-0.66675 -0.28758,-0.66675 -0.16097,-0.190853 -0.46122,-0.179564 -0.46122,-0.179564 l -0.46027,-0.129116 c -0.0365,-0.05715 -0.0704,-0.119945 -0.0977,-0.19685 -0.0559,-0.40887 0.24007,-0.79375 0.43741,-1.102431 0.60646,-0.660753 1.54809,-0.925336 1.98755,-1.405114 0.39024,-0.438503 0.78313,-1.126067 0.71864,-2.009422 -0.0262,-0.381706 -0.70351,-0.559859 -0.85989,-0.522464" />
    <path
       inkscape:connector-curvature="0"
       id="path4576"
       style="fill:#ffffff;fill-opacity:1;fill-rule:nonzero;stroke:none;stroke-width:0.0352778"
       d="m -261.17267,74.820285 c 0.28194,0.675923 0.13172,1.358548 0.13172,1.358548 -0.24172,0.418394 -0.43077,0.710494 -0.43077,0.710494 l 0.1229,0.07937 c 0.0666,0.311503 -0.31171,0.462492 -0.31171,0.462492 0.49981,0.106186 0.66724,-0.287867 0.66724,-0.287867 0.19061,-0.160514 0.17957,-0.46108 0.17957,-0.46108 l 0.12873,-0.460023 c 0.0573,-0.03669 0.12015,-0.07055 0.1972,-0.09772 0.2479,-0.130175 0.45667,0.01905 0.61376,0.158044 0.0576,0.05397 0.11547,0.108656 0.17184,0.169334 0.33761,0.306211 0.47999,0.773289 0.72362,1.14053 l -9.6e-4,0.0021 0.35483,0.565503 c 0.0182,-0.345017 0.0991,-0.723195 0.21251,-1.100667 0.0609,-0.202142 0.13064,-0.402519 0.20518,-0.598664 h -0.29313 c -0.0149,-0.0021 -0.0307,-0.0021 -0.0479,0 -0.4101,-0.10548 -0.7305,-0.484011 -1.11608,-0.808214 -0.11945,-0.111125 -0.40735,-0.32385 -0.64107,-0.492478 -0.0681,-0.04904 -0.10389,-0.05715 -0.13889,-0.154869 -0.0347,-0.09772 0.1396,-0.214489 0.1396,-0.214489 0.45074,-0.306211 0.39811,-0.863247 0.39811,-0.863247 -0.10238,-0.601134 -0.29284,-0.624417 -0.29284,-0.624417 0.0145,0.129117 -0.14013,0.521053 -0.14013,0.521053 -0.0926,0.0014 -0.1779,0.15875 -0.1779,0.15875 0.0674,-0.364772 -0.14415,-0.673453 -0.14415,-0.673453 -0.38463,-0.558094 -0.80617,-0.361244 -0.80617,-0.361244 0.33144,0.0011 0.40873,0.485422 0.40873,0.485422 -0.19318,0.210961 0.14125,1.031875 0.14125,1.031875 l -0.59171,-0.722489 c -0.36326,-0.272345 -0.72598,-0.111125 -0.72598,-0.111125 0.26709,0.01129 0.35898,0.378178 0.35898,0.378178 0.0263,0.245533 0.1505,0.331258 0.1505,0.331258 0.0954,0.444853 0.55316,0.479072 0.55316,0.479072" />
    <path
       inkscape:connector-curvature="0"
       id="path4578"
       style="fill:#ffffff;fill-opacity:1;fill-rule:nonzero;stroke:none;stroke-width:0.0352778"
       d="m -253.0989,76.350635 6.7e-4,3.53e-4 c 0.63335,-0.529872 1.16114,-1.815747 1.31343,-2.322336 1.81624,-6.0452 10.00485,-3.870678 10.00485,-3.870678 -2.52095,-0.976489 -5.06166,-0.65017 -5.06166,-0.65017 0,0 -3.77945,0.187678 -5.16974,3.309056 -0.83288,1.86937 -1.25402,2.514248 -1.43069,2.718859 -3.9e-4,0 -3.9e-4,-7.06e-4 -6.7e-4,-7.06e-4 -0.96947,1.023761 -1.86076,0.925336 -1.86076,0.925336 0.93415,-0.266347 1.40282,-0.945091 1.52477,-1.147233 0,0 0.12115,-0.193675 0.12802,-0.263172 -0.0814,0.01235 -0.29778,0.07514 -0.39426,0.07655 -0.29104,0.01094 -0.55093,-0.234244 -0.60893,-0.572558 -0.2147,0.231775 -0.36837,0.496006 -0.36837,0.496006 0.0294,-0.323145 0.26444,-0.663928 0.4367,-0.873831 0.0408,-0.05962 0.0925,-0.115711 0.14609,-0.166158 0.0231,-0.02399 0.0376,-0.03881 0.0376,-0.03881 l 0.002,0.0032 c 0.11783,-0.104069 0.23026,-0.173567 0.23026,-0.173567 0,0 -0.43723,-0.257175 -0.4579,-0.717902 -0.2442,0.22225 -0.42969,0.496711 -0.42969,0.496711 0.0564,-0.352778 0.3623,-0.709789 0.54794,-0.898172 0.15571,-0.205317 0.40816,-0.270934 0.40816,-0.270934 0,0 -0.4662,-0.09384 -0.39052,-0.894644 -0.18398,0.191911 -0.31324,0.382764 -0.31324,0.382764 0.046,-0.288925 0.26018,-0.58032 0.43794,-0.780345 0.1469,-0.2413 0.36753,-0.325967 0.36753,-0.325967 -0.0456,-0.0321 -0.087,-0.06738 -0.12612,-0.104775 -0.0475,-0.04022 -0.10442,-0.08996 -0.16743,-0.149225 -0.0869,-0.08396 -0.1845,-0.186619 -0.27668,-0.307622 -0.0901,-0.122061 -0.17918,-0.262114 -0.22437,-0.421922 -0.0245,-0.07867 -0.0353,-0.163336 -0.0302,-0.244828 0.002,-0.0822 0.0281,-0.160514 0.0605,-0.230011 0.0351,-0.06844 0.078,-0.129469 0.1276,-0.1778 0.0467,-0.05186 0.0999,-0.09031 0.14742,-0.125942 0.0981,-0.06844 0.18673,-0.113594 0.24974,-0.141816 0.0631,-0.02858 0.0989,-0.0448 0.0989,-0.0448 0,0 -0.0347,0.01834 -0.0959,0.05045 -0.0605,0.03246 -0.0966,0.05398 -0.18838,0.126647 -0.0447,0.0381 -0.0936,0.07867 -0.1348,0.130881 -0.0448,0.04904 -0.0807,0.109361 -0.1094,0.173919 -0.0255,0.06562 -0.0441,0.137231 -0.0412,0.210609 2.8e-4,0.07373 0.0143,0.147814 0.0412,0.218369 0.0719,0.190853 0.13917,0.336903 0.26857,0.467078 -0.0517,-0.158045 -0.0572,-0.287514 -0.0382,-0.468136 0.0496,-0.569031 0.8854,-0.928159 0.8854,-0.928159 0,0 -0.0961,-0.116416 -0.30483,-0.1397 0,0 -0.58579,-0.151694 -1.81144,0.652639 -0.61571,-0.351366 -1.53512,-0.183797 -2.13569,0.404989 0,0 -0.79262,-0.37465 -1.7968,0.565856 l 1.00224,0.291394 c 0.29641,0.148872 0.34643,0.19685 0.34368,0.564092 0.45254,-0.286103 0.84377,-0.233892 1.18138,-0.07232 0.19981,0.09878 0.62442,0.385233 0.48384,0.949677 -0.0458,0.08114 -0.0952,0.158045 -0.15791,0.22225 -0.3991,0.42792 -1.01632,0.454378 -1.51035,0.505178 -0.16534,0.02505 -0.32864,0.336903 -0.40043,0.50412 l 0.13984,-0.03316 c 0.76454,-0.222603 1.36041,0.234244 2.11709,-0.08149 0.60275,-0.357011 0.79431,-0.780697 0.78782,-1.513417 -0.0871,-1.084792 -0.48408,-1.357842 -0.63913,-1.407231 -0.31365,-0.07832 -0.51082,0.251531 -0.68583,0.144287 -0.21015,-0.12947 -0.1294,-0.458259 -0.1294,-0.458259 0.20849,-0.08255 0.62272,0.04692 0.79086,0.111125 0.22309,0.115006 0.79802,0.397228 0.8993,1.649236 0.0471,0.383823 0.0344,0.665339 0.0307,1.131006 -0.12015,1.360311 -0.68805,1.759656 -0.80641,3.219803 0.0231,0.836083 0.0973,0.975078 0.27062,1.11372 0.32067,0.256469 1.34387,0.184502 1.82026,-0.06773 0.36174,-0.191205 0.68379,-0.447322 0.96463,-0.730603" />
    <path
       inkscape:connector-curvature="0"
       id="path4580"
       style="fill:#ffffff;fill-opacity:1;fill-rule:nonzero;stroke:none;stroke-width:0.0352778"
       d="m -255.07198,78.764694 c 7e-4,-0.0018 0.002,-0.0039 0.003,-0.0078 -10e-4,0.0032 -0.002,0.0056 -0.003,0.0078" />
    <path
       inkscape:connector-curvature="0"
       id="path4582"
       style="fill:#ffffff;fill-opacity:1;fill-rule:nonzero;stroke:none;stroke-width:0.0352778"
       d="m -255.07198,78.764694 c -0.001,0.0039 -0.001,0.0032 0,0" />
    <path
       inkscape:connector-curvature="0"
       id="path4584"
       style="fill:#ffffff;fill-opacity:1;fill-rule:nonzero;stroke:none;stroke-width:0.0352778"
       d="m -255.06881,78.756933 c 0.002,-0.0056 0.005,-0.01164 0.006,-0.01517 -0.002,0.006 -0.005,0.01129 -0.006,0.01517" />
    <path
       inkscape:connector-curvature="0"
       id="path4586"
       style="fill:#ffffff;fill-opacity:1;fill-rule:nonzero;stroke:none;stroke-width:0.0352778"
       d="m -239.54087,81.638775 c -0.23036,-0.06421 -0.45896,0.117122 -0.45896,0.117122 l -0.47273,0.173214 c -0.0268,0.0254 -0.36583,-0.0314 -0.39758,-0.0081 -0.085,-0.206022 -0.17815,-0.500592 -0.30832,-1.056217 l -0.001,-0.0046 c -0.0187,-0.07938 -0.0378,-0.163689 -0.0579,-0.254 h -0.002 l -0.1083,-0.460375 -0.1016,-0.844197 c 0,0 -0.006,-0.02222 -0.0169,-0.05821 -0.14429,-0.669572 -0.40323,-0.993422 -0.42334,-1.025877 l -3.5e-4,0.0011 c -0.73942,-1.187803 -2.28917,-1.709914 -2.30681,-1.713442 0.0691,0.01376 1.42099,0.233892 2.26448,1.22167 0.38805,-0.08502 0.76059,-0.224367 1.13524,-0.43427 1.6009,-0.896055 2.53365,-3.274131 1.23049,-4.901142 -1.28659,-1.606197 -3.86715,-0.872772 -4.14938,0.582084 -0.2293,1.183569 0.66534,1.810102 0.66534,1.810102 -0.21449,-0.760236 0.76306,-1.590322 0.76306,-1.590322 -0.27799,-0.337961 -1.03329,-0.0822 -1.03329,-0.0822 0.76342,-1.590322 2.2098,-1.096081 2.2098,-1.096081 2.19746,0.844198 1.71203,3.591278 -0.2988,4.33952 -0.65687,0.244475 -1.32574,0.1524 -1.91876,-0.07691 -0.86607,-0.435327 -0.45473,-1.745897 -0.45473,-1.745897 0,0 -0.42016,0.501297 -0.94544,0.465667 -7.1e-4,0 -0.001,-3.53e-4 -0.002,-3.53e-4 0.0473,0.299861 0.21097,0.620183 0.21097,0.620183 -0.29599,-0.233891 -0.43745,-0.845608 -0.43745,-0.845608 h 7.1e-4 c -0.13759,-0.337256 -0.12171,-0.914047 -0.17498,-0.7366 -0.0765,0.252589 -0.28081,0.672394 -0.9017,0.723194 -0.006,7.06e-4 -0.0113,-0.0014 -0.0166,-0.0011 0.11218,0.2286 0.26635,0.422981 0.26635,0.422981 -0.21696,-0.110773 -0.40111,-0.386645 -0.50518,-0.569384 -0.19544,-0.272697 -0.26423,-0.826558 -0.26423,-0.826558 -0.4438,0.823736 -1.71584,1.000478 -2.20352,1.029053 -0.74084,-0.08925 -0.5449,0.894644 -0.5449,0.894644 -0.26787,-0.141111 -0.32893,-0.333728 -0.67342,-0.337961 -0.15713,-0.0085 -0.47089,0.08008 -0.60868,0.187325 -0.38905,0.234597 -0.68972,0.625475 -0.72599,1.652764 -0.37108,-0.299861 -0.74824,-0.125236 -1.12335,0.150989 0,0 -0.0941,0.531989 -0.38587,0.794456 -0.46743,-0.255059 -0.99148,-0.352425 -1.10945,-0.355953 l 0.002,-3.53e-4 c 0,0 -0.42361,-0.05221 -1.05791,0.02681 0,0 0.0915,0.500945 -0.0773,0.912989 0.95307,0.636058 2.46271,-0.03316 3.29985,-0.504119 0.95416,-0.525639 1.85043,-1.283759 2.85256,-1.669345 0.50296,-0.22613 1.03682,-0.134761 1.46297,0.16122 0.61101,0.424038 1.30493,1.607255 2.03518,2.315986 0.0409,0.03986 0.48083,0.632883 2.0006,0.706967 0,0 0.79693,-0.01552 1.39171,0.928511 0.0272,0.04515 0.0554,0.09313 0.0843,0.144286 0.0208,0.03845 0.0427,0.07514 0.0632,0.116416 0.14041,0.265289 0.28681,0.599723 0.40111,1.021292 -0.0166,0.116417 -0.0377,0.24377 -0.0713,0.353131 -0.0176,0.06244 -0.0416,0.112889 -0.0677,0.158044 -3.5e-4,0 -0.001,-3.53e-4 -0.002,-3.53e-4 -0.0166,0.102306 -0.14781,-0.04833 -0.14781,-0.04833 -0.48684,-0.194028 -0.89359,0.168628 -0.89359,0.168628 -0.41451,0.428272 -0.32844,0.597253 -0.32844,0.597253 0.0931,-0.08537 0.48402,-0.183092 0.48402,-0.183092 0.0519,0.07479 0.22225,0.05433 0.22225,0.05433 -0.3228,0.153811 -0.44838,0.504472 -0.44838,0.504472 -0.22614,0.634647 0.15839,0.86748 0.15839,0.86748 -0.18027,-0.272344 0.15628,-0.613127 0.15628,-0.613127 0.27094,0.03739 0.73025,-0.70732 0.73025,-0.70732 l -0.24165,0.899231 c -0.0141,0.453319 0.31044,0.658283 0.31044,0.658283 -0.13758,-0.225425 0.0991,-0.510822 0.0991,-0.510822 0.1778,-0.161925 0.17674,-0.313267 0.17674,-0.313267 0.29633,-0.333022 0.0727,-0.727428 0.0727,-0.727428 -0.0413,-0.546805 0.99095,-0.886883 0.99095,-0.886883 0.45967,-0.04163 0.78634,-0.200378 0.78634,-0.200378 0.20744,-0.233186 0.53235,-0.0092 0.53235,-0.0092 -0.19015,-0.470606 -0.58985,-0.382058 -0.58985,-0.382058" />
    <path
       inkscape:connector-curvature="0"
       id="path4588"
       style="fill:#ffffff;fill-opacity:1;fill-rule:nonzero;stroke:none;stroke-width:0.0352778"
       d="m -235.06906,86.668328 -0.0437,0.01482 c -0.502,0.333375 -4.07706,2.382662 -13.1704,-0.279047 -11.07821,-3.243439 -17.83376,2.333625 -17.83376,2.333625 l 0.0875,0.02081 c 0.99328,-0.518583 7.7742,-3.802592 17.98186,-0.817739 9.86914,2.88925 12.97852,-1.272469 12.97852,-1.272469" />
    <path
       inkscape:connector-curvature="0"
       id="path4590"
       style="fill:#ffffff;fill-opacity:1;fill-rule:nonzero;stroke:none;stroke-width:0.0352778"
       d="m -250.59707,118.80116 c 0,0 17.6595,-4.51171 19.82696,-18.69807 l -0.0808,0.0943 c -1.58645,10.33596 -19.74618,15.9851 -19.74618,15.9851 h 0.008 c 0,0 -18.15991,-5.64914 -19.74632,-15.9851 l -0.0806,-0.0943 c 2.16765,14.18636 19.82693,18.69807 19.82693,18.69807" />
    <path
       inkscape:connector-curvature="0"
       id="path4592"
       style="fill:#ffffff;fill-opacity:1;fill-rule:nonzero;stroke:none;stroke-width:0.0352778"
       d="m -250.60162,66.075982 c 6.70112,0 17.76,2.822928 18.77283,4.696531 0.49671,0.77223 0.90346,4.786489 0.98389,5.494161 l 0.0833,0.123825 c 0,0 0.1912,-4.079522 0.12206,-5.316008 -0.14252,-2.558345 -9.15811,-7.113765 -19.96204,-7.113765 h 0.0171 c -10.80382,0 -19.81948,4.55542 -19.96211,7.113765 -0.069,1.236486 0.1221,5.316008 0.1221,5.316008 l 0.0832,-0.123825 c 0.0806,-0.707672 0.48715,-4.721931 0.98393,-5.494161 1.01286,-1.873603 12.0716,-4.696531 18.77286,-4.696531" />
  </g>
  <g
     aria-label="ReCoN"
     id="text1201"
     style="font-style:normal;font-variant:normal;font-weight:normal;font-stretch:normal;font-size:173.655px;line-height:1.25;font-family:'0420 Semiuncialis';-inkscape-font-specification:'0420 Semiuncialis';text-align:center;text-anchor:middle;fill:#ffffff;fill-opacity:1;stroke-width:4.34138">
    <path
       d="m 1257.4969,251.47148 h 24.8327 v -54.18036 c 6.9462,1.38924 8.3354,1.38924 14.4133,1.38924 l 31.2579,52.79112 h 27.7848 l -34.21,-58.17442 c 5.036,-2.60483 10.7666,-5.55696 15.8026,-13.19778 4.6887,-7.11986 5.5569,-14.06606 5.5569,-18.58109 0,-8.68275 -3.2994,-19.79667 -13.1977,-26.39556 -7.1199,-4.68868 -15.629,-6.25158 -28.6531,-6.25158 h -43.5874 z m 24.8327,-105.58224 c 3.1257,0 6.9462,-0.17365 10.2456,-0.17365 4.8623,0 10.593,0.34731 15.6289,3.12579 8.6828,4.68868 9.2038,13.71874 9.2038,16.49722 0,11.80854 -8.3355,17.88647 -14.5871,20.49129 -6.7725,2.77848 -13.7187,2.77848 -20.4912,2.95214 z"
       style="font-style:normal;font-variant:normal;font-weight:normal;font-stretch:normal;font-family:Cosmos;-inkscape-font-specification:Cosmos;fill:#ffffff;fill-opacity:1;stroke-width:4.34138"
       id="path903" />
    <path
       d="m 1445.9126,224.3813 c -6.078,7.81448 -12.5032,15.97626 -28.6531,15.97626 -27.4375,0 -30.3896,-24.48535 -31.2579,-31.08424 h 68.4201 c -0.1737,-9.72468 -0.3474,-26.22191 -12.6769,-38.72507 -10.7666,-10.76661 -24.659,-11.98219 -32.2998,-11.98219 -31.4315,0 -48.1024,21.18591 -48.1024,47.23416 0,27.26383 16.8445,49.31802 48.797,49.31802 30.5633,0 37.6832,-18.23378 41.5036,-27.95846 z m -59.39,-28.65307 c 2.2575,-8.85641 5.7306,-22.57515 22.4014,-22.57515 17.3655,0 19.2758,14.58702 20.3177,22.57515 z"
       style="font-style:normal;font-variant:normal;font-weight:normal;font-stretch:normal;font-family:Cosmos;-inkscape-font-specification:Cosmos;fill:#ffffff;fill-opacity:1;stroke-width:4.34138"
       id="path905" />
    <path
       d="m 1568.9499,221.25551 c -3.1258,4.86234 -11.9822,18.58109 -33.6891,18.58109 -27.0902,0 -42.3718,-22.74881 -42.3718,-50.01264 0,-32.64714 20.6649,-49.83899 43.9347,-49.83899 11.6349,0 20.6649,4.34138 25.7009,9.55103 2.6048,2.60482 4.3414,5.73061 6.2516,9.03006 l 6.9462,-2.08386 c -1.0419,-5.036 -2.2575,-11.80854 -9.551,-19.10205 -9.3774,-9.55103 -23.0961,-12.67682 -36.6412,-12.67682 -35.9466,0 -63.0368,25.70094 -63.0368,66.16256 0,11.28757 1.7366,31.77886 18.4074,48.27609 5.2097,5.20965 17.1919,15.97626 43.7611,15.97626 7.1198,0 24.138,-0.52097 36.1202,-12.15585 7.2935,-7.11986 9.8984,-15.4553 11.114,-19.10205 z"
       style="font-style:normal;font-variant:normal;font-weight:normal;font-stretch:normal;font-family:Cosmos;-inkscape-font-specification:Cosmos;fill:#ffffff;fill-opacity:1;stroke-width:4.34138"
       id="path907" />
    <path
       d="m 1631.2052,158.91337 c -20.144,0.34731 -45.4976,13.19778 -45.4976,48.44974 0,28.82673 17.7128,47.75513 44.803,47.75513 32.6471,0 47.0605,-23.79074 47.0605,-48.6234 0,-32.29983 -22.7488,-47.92878 -46.3659,-47.58147 z m 0.3473,14.23971 c 15.108,0 21.5332,14.93433 21.5332,34.731 0,18.23377 -6.9462,33.1681 -21.5332,33.1681 -14.4134,0 -21.3596,-14.23971 -21.3596,-34.38369 0,-19.2757 7.1199,-33.51541 21.3596,-33.51541 z"
       style="font-style:normal;font-variant:normal;font-weight:normal;font-stretch:normal;font-family:Cosmos;-inkscape-font-specification:Cosmos;fill:#ffffff;fill-opacity:1;stroke-width:4.34138"
       id="path909" />
    <path
       d="m 1695.0261,251.47148 h 19.7967 v -90.3006 l 82.1388,91.68984 h 6.0779 V 128.87105 h -19.4494 v 75.01896 c -2.4311,-2.60482 -2.9521,-3.29944 -4.6886,-5.55696 l -61.8212,-69.462 h -22.0542 z"
       style="font-style:normal;font-variant:normal;font-weight:normal;font-stretch:normal;font-family:Cosmos;-inkscape-font-specification:Cosmos;fill:#ffffff;fill-opacity:1;stroke-width:4.34138"
       id="path911" />
  </g>
</svg>
